<?xml version="1.0" encoding="UTF-8"?>
<svg xmlns="http://www.w3.org/2000/svg" xmlns:xlink="http://www.w3.org/1999/xlink" width="16px" height="16px" viewBox="0 0 16 16" version="1.1">
<g id="surface1">
<path style=" stroke:none;fill-rule:nonzero;fill:rgb(0%,0%,0%);fill-opacity:1;" d="M 8.078125 2.214844 C 7.886719 2.242188 7.394531 2.332031 7.269531 2.367188 C 7.234375 2.371094 7.164062 2.386719 7.113281 2.398438 C 7.0625 2.410156 6.976562 2.429688 6.917969 2.445312 C 6.863281 2.460938 6.769531 2.480469 6.714844 2.496094 C 6.660156 2.511719 6.582031 2.53125 6.542969 2.542969 C 6.507812 2.554688 6.441406 2.574219 6.398438 2.585938 C 6.359375 2.597656 6.308594 2.613281 6.289062 2.621094 C 6.269531 2.632812 6.203125 2.65625 6.140625 2.679688 C 6.078125 2.703125 6.011719 2.730469 5.996094 2.738281 C 5.980469 2.746094 5.929688 2.769531 5.886719 2.789062 C 5.839844 2.808594 5.773438 2.839844 5.730469 2.859375 C 5.691406 2.878906 5.648438 2.894531 5.640625 2.894531 C 5.628906 2.894531 5.617188 2.902344 5.613281 2.90625 C 5.613281 2.914062 5.550781 2.949219 5.480469 2.984375 C 5.195312 3.132812 5.167969 3.148438 5.160156 3.160156 C 5.152344 3.167969 5.121094 3.1875 5.089844 3.207031 C 5.058594 3.21875 5.007812 3.25 4.980469 3.269531 C 4.953125 3.285156 4.914062 3.308594 4.902344 3.3125 C 4.867188 3.328125 4.65625 3.464844 4.621094 3.496094 C 4.601562 3.511719 4.546875 3.554688 4.5 3.589844 C 4.449219 3.628906 4.410156 3.667969 4.410156 3.679688 C 4.410156 3.6875 4.398438 3.695312 4.382812 3.695312 C 4.371094 3.695312 4.359375 3.703125 4.359375 3.710938 C 4.359375 3.730469 4.316406 3.769531 4.222656 3.847656 C 4.195312 3.871094 4.171875 3.894531 4.171875 3.902344 C 4.171875 3.90625 4.148438 3.933594 4.125 3.960938 C 4.015625 4.078125 3.824219 4.40625 3.71875 4.660156 C 3.574219 4.996094 3.507812 5.167969 3.507812 5.195312 C 3.507812 5.210938 3.5 5.226562 3.492188 5.234375 C 3.484375 5.238281 3.46875 5.269531 3.460938 5.296875 C 3.457031 5.328125 3.441406 5.375 3.429688 5.402344 C 3.417969 5.429688 3.386719 5.523438 3.363281 5.609375 C 3.335938 5.691406 3.304688 5.789062 3.292969 5.816406 C 3.277344 5.847656 3.269531 5.886719 3.269531 5.90625 C 3.269531 5.925781 3.257812 5.96875 3.246094 6.003906 C 3.230469 6.039062 3.214844 6.109375 3.203125 6.160156 C 3.191406 6.210938 3.171875 6.3125 3.160156 6.382812 C 3.125 6.550781 3.121094 6.796875 3.15625 6.824219 C 3.171875 6.835938 3.183594 6.855469 3.183594 6.867188 C 3.183594 6.914062 3.289062 6.992188 3.382812 7.019531 C 3.558594 7.074219 3.5625 7.074219 3.625 7.300781 C 3.648438 7.378906 3.65625 7.394531 3.734375 7.550781 C 3.859375 7.800781 3.90625 7.882812 3.933594 7.90625 C 3.960938 7.933594 3.960938 7.9375 3.90625 8.011719 C 3.84375 8.105469 3.769531 8.257812 3.730469 8.382812 C 3.691406 8.515625 3.683594 8.992188 3.71875 9.15625 C 3.789062 9.480469 3.878906 9.722656 3.957031 9.8125 C 3.96875 9.824219 3.988281 9.859375 4.007812 9.894531 C 4.027344 9.929688 4.046875 9.957031 4.054688 9.957031 C 4.0625 9.957031 4.066406 9.964844 4.066406 9.972656 C 4.066406 9.984375 4.085938 10.011719 4.109375 10.035156 C 4.132812 10.0625 4.167969 10.105469 4.179688 10.136719 C 4.207031 10.195312 4.414062 10.417969 4.441406 10.417969 C 4.449219 10.417969 4.46875 10.425781 4.480469 10.4375 C 4.503906 10.460938 4.550781 10.484375 4.6875 10.542969 C 4.726562 10.558594 4.820312 10.574219 4.921875 10.582031 L 5.085938 10.59375 L 5.125 10.714844 C 5.144531 10.78125 5.167969 10.851562 5.179688 10.875 C 5.1875 10.902344 5.207031 10.964844 5.226562 11.015625 C 5.269531 11.144531 5.347656 11.304688 5.375 11.3125 C 5.386719 11.320312 5.394531 11.328125 5.394531 11.339844 C 5.394531 11.355469 5.4375 11.402344 5.453125 11.402344 C 5.457031 11.402344 5.488281 11.429688 5.519531 11.457031 C 5.617188 11.554688 5.683594 11.605469 5.785156 11.671875 C 5.921875 11.761719 5.921875 11.761719 6.171875 11.886719 C 6.425781 12.011719 6.503906 12.050781 6.648438 12.09375 C 6.703125 12.109375 6.777344 12.132812 6.808594 12.144531 C 6.875 12.167969 7.199219 12.242188 7.378906 12.277344 L 7.496094 12.300781 L 7.503906 12.503906 L 7.507812 12.710938 L 7.460938 12.730469 C 7.390625 12.757812 7.125 12.9375 7 13.039062 C 6.988281 13.046875 6.976562 13.054688 6.972656 13.054688 C 6.964844 13.054688 6.875 13.128906 6.824219 13.179688 C 6.804688 13.195312 6.785156 13.207031 6.78125 13.207031 C 6.765625 13.207031 6.527344 13.367188 6.523438 13.382812 C 6.519531 13.390625 6.503906 13.394531 6.492188 13.394531 C 6.476562 13.394531 6.46875 13.402344 6.46875 13.414062 C 6.46875 13.421875 6.457031 13.429688 6.441406 13.429688 C 6.429688 13.429688 6.417969 13.4375 6.417969 13.445312 C 6.417969 13.457031 6.394531 13.472656 6.367188 13.488281 C 6.335938 13.503906 6.257812 13.5625 6.191406 13.621094 C 6.050781 13.738281 5.621094 14.167969 5.53125 14.277344 C 5.5 14.320312 5.449219 14.375 5.425781 14.40625 C 5.398438 14.433594 5.351562 14.488281 5.324219 14.53125 C 5.296875 14.570312 5.265625 14.605469 5.257812 14.605469 C 5.25 14.605469 5.242188 14.617188 5.242188 14.628906 C 5.242188 14.644531 5.234375 14.65625 5.226562 14.65625 C 5.21875 14.65625 5.207031 14.664062 5.207031 14.679688 C 5.207031 14.691406 5.195312 14.707031 5.183594 14.714844 C 5.167969 14.71875 5.15625 14.730469 5.15625 14.742188 C 5.15625 14.753906 5.132812 14.792969 5.105469 14.820312 C 5.078125 14.855469 5.050781 14.894531 5.046875 14.914062 C 5.039062 14.929688 5.027344 14.945312 5.019531 14.945312 C 5.011719 14.945312 5.003906 14.953125 5.003906 14.960938 C 5.003906 14.972656 4.980469 15.007812 4.945312 15.042969 C 4.914062 15.078125 4.871094 15.128906 4.847656 15.15625 C 4.828125 15.183594 4.804688 15.210938 4.796875 15.214844 C 4.789062 15.21875 4.78125 15.230469 4.78125 15.246094 C 4.78125 15.257812 4.777344 15.269531 4.769531 15.269531 C 4.761719 15.269531 4.742188 15.289062 4.726562 15.320312 C 4.710938 15.347656 4.6875 15.378906 4.675781 15.390625 C 4.648438 15.421875 4.542969 15.574219 4.542969 15.585938 C 4.542969 15.589844 4.535156 15.601562 4.527344 15.613281 C 4.488281 15.660156 4.273438 15.964844 4.273438 15.972656 C 4.273438 15.976562 4.328125 15.984375 4.398438 15.984375 L 4.523438 15.984375 L 4.578125 15.894531 C 4.609375 15.84375 4.636719 15.800781 4.644531 15.796875 C 4.664062 15.78125 4.730469 15.679688 4.730469 15.667969 C 4.730469 15.664062 4.742188 15.648438 4.75 15.636719 C 4.773438 15.609375 4.925781 15.398438 5 15.285156 C 5.035156 15.234375 5.074219 15.183594 5.082031 15.175781 C 5.097656 15.160156 5.242188 14.949219 5.285156 14.878906 C 5.296875 14.863281 5.3125 14.84375 5.320312 14.835938 C 5.332031 14.824219 5.363281 14.785156 5.386719 14.75 C 5.414062 14.710938 5.445312 14.671875 5.453125 14.664062 C 5.464844 14.652344 5.53125 14.582031 5.601562 14.503906 C 5.667969 14.421875 5.742188 14.34375 5.757812 14.328125 C 5.792969 14.292969 5.792969 14.28125 5.746094 14.492188 C 5.707031 14.660156 5.667969 14.890625 5.660156 15.046875 C 5.65625 15.125 5.640625 15.191406 5.636719 15.195312 C 5.613281 15.207031 5.480469 15.328125 5.480469 15.34375 C 5.480469 15.351562 5.46875 15.371094 5.457031 15.386719 C 5.421875 15.429688 5.390625 15.554688 5.398438 15.652344 C 5.402344 15.734375 5.398438 15.75 5.351562 15.800781 C 5.320312 15.832031 5.292969 15.882812 5.285156 15.917969 L 5.273438 15.984375 L 5.378906 15.984375 C 5.449219 15.984375 5.480469 15.976562 5.480469 15.960938 C 5.480469 15.949219 5.503906 15.925781 5.535156 15.90625 C 5.578125 15.882812 5.589844 15.878906 5.613281 15.902344 C 5.707031 15.976562 5.753906 15.984375 6.210938 15.984375 L 6.648438 15.984375 L 6.726562 15.914062 L 6.808594 15.84375 L 6.898438 15.863281 C 7.0625 15.894531 7.40625 15.914062 7.878906 15.921875 C 8.277344 15.925781 8.34375 15.929688 8.371094 15.957031 C 8.398438 15.980469 8.46875 15.984375 8.976562 15.984375 L 9.550781 15.984375 L 9.648438 15.929688 C 9.699219 15.898438 9.765625 15.855469 9.796875 15.832031 C 9.839844 15.796875 9.847656 15.796875 9.855469 15.820312 C 9.882812 15.898438 10.105469 15.960938 10.433594 15.976562 L 10.574219 15.988281 L 10.542969 15.933594 C 10.46875 15.804688 10.355469 15.75 10.171875 15.746094 C 10.066406 15.742188 10.042969 15.738281 10 15.699219 C 9.96875 15.671875 9.957031 15.652344 9.96875 15.648438 C 9.980469 15.644531 10.003906 15.613281 10.019531 15.578125 C 10.054688 15.507812 10.058594 15.28125 10.027344 15.273438 C 9.988281 15.257812 10.007812 15.160156 10.074219 15.003906 C 10.210938 14.691406 10.265625 14.585938 10.535156 14.085938 C 10.574219 14.015625 10.605469 13.953125 10.605469 13.941406 C 10.605469 13.933594 10.621094 13.898438 10.636719 13.871094 L 10.667969 13.816406 L 10.8125 13.960938 C 10.964844 14.117188 11.132812 14.296875 11.132812 14.308594 C 11.132812 14.320312 11.242188 14.460938 11.257812 14.464844 C 11.261719 14.46875 11.269531 14.480469 11.269531 14.496094 C 11.269531 14.507812 11.273438 14.519531 11.285156 14.519531 C 11.300781 14.519531 11.433594 14.730469 11.53125 14.917969 C 11.554688 14.964844 11.582031 15.015625 11.589844 15.03125 C 11.601562 15.042969 11.621094 15.082031 11.636719 15.113281 C 11.667969 15.191406 11.703125 15.25 11.726562 15.273438 C 11.734375 15.285156 11.746094 15.308594 11.746094 15.332031 C 11.746094 15.351562 11.753906 15.371094 11.769531 15.371094 C 11.78125 15.371094 11.800781 15.394531 11.8125 15.425781 C 11.832031 15.472656 11.925781 15.675781 11.992188 15.820312 C 12.007812 15.847656 12.015625 15.878906 12.015625 15.886719 C 12.015625 15.898438 12.03125 15.921875 12.046875 15.945312 C 12.074219 15.980469 12.089844 15.984375 12.183594 15.980469 L 12.285156 15.972656 L 12.242188 15.878906 C 12.222656 15.828125 12.195312 15.773438 12.1875 15.753906 C 12.179688 15.734375 12.152344 15.667969 12.121094 15.609375 C 12.011719 15.367188 11.984375 15.304688 11.984375 15.292969 C 11.984375 15.285156 11.964844 15.257812 11.941406 15.230469 C 11.921875 15.199219 11.894531 15.15625 11.890625 15.132812 C 11.882812 15.109375 11.863281 15.074219 11.847656 15.054688 C 11.832031 15.035156 11.792969 14.980469 11.765625 14.925781 C 11.585938 14.589844 11.378906 14.285156 11.265625 14.175781 C 11.238281 14.148438 11.21875 14.125 11.21875 14.121094 C 11.21875 14.105469 11.035156 13.914062 10.945312 13.832031 C 10.914062 13.800781 10.867188 13.757812 10.835938 13.726562 C 10.753906 13.648438 10.441406 13.414062 10.335938 13.351562 C 10.320312 13.34375 10.261719 13.308594 10.207031 13.273438 C 10.15625 13.238281 10.105469 13.207031 10.101562 13.207031 C 10.097656 13.207031 10.066406 13.191406 10.035156 13.167969 C 10 13.144531 9.898438 13.089844 9.808594 13.046875 C 9.71875 13.003906 9.628906 12.960938 9.617188 12.953125 C 9.585938 12.933594 9.347656 12.820312 9.300781 12.800781 C 9.152344 12.738281 9.074219 12.691406 9.066406 12.667969 C 9.0625 12.652344 9.054688 12.515625 9.050781 12.367188 L 9.046875 12.097656 L 9.246094 12.035156 C 9.355469 12 9.457031 11.960938 9.472656 11.949219 C 9.546875 11.910156 9.722656 11.828125 9.738281 11.828125 C 9.761719 11.828125 9.917969 11.75 10.007812 11.695312 C 10.039062 11.675781 10.082031 11.652344 10.101562 11.644531 C 10.148438 11.625 10.292969 11.511719 10.359375 11.449219 C 10.386719 11.417969 10.425781 11.382812 10.445312 11.367188 C 10.535156 11.289062 10.757812 11.011719 10.757812 10.972656 C 10.757812 10.964844 10.769531 10.941406 10.78125 10.929688 C 10.792969 10.914062 10.8125 10.867188 10.824219 10.824219 C 10.835938 10.78125 10.859375 10.726562 10.871094 10.695312 C 10.882812 10.664062 10.894531 10.628906 10.894531 10.609375 C 10.894531 10.585938 10.910156 10.578125 10.96875 10.574219 L 11.046875 10.570312 L 11.035156 10.660156 C 11.03125 10.707031 11.019531 10.773438 11.011719 10.804688 C 10.980469 10.902344 11.058594 10.96875 11.144531 10.914062 C 11.167969 10.902344 11.214844 10.882812 11.246094 10.878906 C 11.324219 10.863281 11.363281 10.8125 11.390625 10.664062 L 11.414062 10.546875 L 11.5 10.519531 C 11.546875 10.503906 11.625 10.46875 11.671875 10.4375 C 11.722656 10.40625 11.765625 10.382812 11.773438 10.382812 C 11.820312 10.382812 12.214844 9.992188 12.324219 9.839844 C 12.34375 9.804688 12.371094 9.773438 12.375 9.769531 C 12.382812 9.765625 12.40625 9.726562 12.425781 9.6875 C 12.492188 9.570312 12.507812 9.546875 12.523438 9.535156 C 12.539062 9.523438 12.648438 9.300781 12.6875 9.199219 C 12.816406 8.882812 12.785156 8.386719 12.621094 8.027344 C 12.570312 7.917969 12.378906 7.707031 12.3125 7.6875 C 12.269531 7.671875 12.265625 7.65625 12.289062 7.613281 C 12.316406 7.5625 12.394531 7.351562 12.425781 7.222656 C 12.441406 7.15625 12.460938 7.09375 12.464844 7.082031 C 12.472656 7.074219 12.484375 7.03125 12.492188 6.992188 C 12.5 6.953125 12.527344 6.839844 12.550781 6.742188 C 12.675781 6.261719 12.722656 5.929688 12.722656 5.582031 C 12.722656 5.273438 12.691406 5.046875 12.59375 4.664062 C 12.574219 4.582031 12.554688 4.503906 12.550781 4.480469 C 12.539062 4.433594 12.394531 4.285156 12.265625 4.183594 C 12.210938 4.144531 12.144531 4.09375 12.121094 4.078125 C 12.097656 4.058594 12.074219 4.039062 12.070312 4.03125 C 12.066406 4.023438 12.054688 4.015625 12.042969 4.015625 C 12.03125 4.015625 12.015625 4.011719 12.011719 4.003906 C 12.007812 3.988281 11.875 3.898438 11.828125 3.875 C 11.816406 3.867188 11.765625 3.839844 11.71875 3.8125 C 11.597656 3.742188 11.324219 3.609375 11.300781 3.609375 C 11.289062 3.609375 11.261719 3.597656 11.238281 3.585938 C 11.144531 3.535156 10.953125 3.472656 10.8125 3.445312 C 10.769531 3.4375 10.753906 3.421875 10.734375 3.367188 C 10.71875 3.332031 10.707031 3.292969 10.707031 3.277344 C 10.707031 3.265625 10.6875 3.222656 10.664062 3.179688 C 10.640625 3.140625 10.613281 3.089844 10.605469 3.074219 C 10.578125 3.011719 10.515625 2.941406 10.316406 2.742188 C 10.085938 2.503906 9.972656 2.417969 9.898438 2.417969 C 9.871094 2.417969 9.808594 2.398438 9.761719 2.375 C 9.621094 2.308594 9.390625 2.253906 9.085938 2.214844 C 8.917969 2.191406 8.226562 2.195312 8.078125 2.214844 Z M 9.195312 4.902344 C 9.222656 4.9375 9.242188 4.976562 9.242188 4.984375 C 9.242188 4.996094 9.25 5.003906 9.257812 5.003906 C 9.277344 5.003906 9.347656 5.171875 9.335938 5.191406 C 9.3125 5.226562 9.34375 5.292969 9.386719 5.304688 C 9.410156 5.308594 9.429688 5.320312 9.429688 5.328125 C 9.429688 5.351562 9.5 5.359375 9.597656 5.34375 C 9.738281 5.324219 9.976562 5.277344 10.011719 5.265625 C 10.027344 5.261719 10.042969 5.261719 10.042969 5.273438 C 10.042969 5.285156 9.90625 5.332031 9.796875 5.355469 C 9.695312 5.378906 9.660156 5.441406 9.714844 5.5 C 9.75 5.539062 9.835938 5.539062 9.933594 5.507812 C 9.96875 5.492188 10.027344 5.484375 10.0625 5.480469 C 10.121094 5.480469 10.125 5.484375 10.136719 5.542969 C 10.140625 5.578125 10.15625 5.660156 10.171875 5.726562 C 10.183594 5.792969 10.199219 5.957031 10.210938 6.09375 C 10.296875 7.253906 10.292969 7.183594 10.242188 7.183594 C 10.21875 7.183594 10.128906 7.199219 10.039062 7.21875 C 9.953125 7.238281 9.84375 7.261719 9.796875 7.269531 C 9.753906 7.277344 9.691406 7.289062 9.660156 7.300781 C 9.632812 7.308594 9.535156 7.328125 9.445312 7.34375 C 9.050781 7.410156 8.949219 7.429688 8.574219 7.523438 C 8.503906 7.542969 8.488281 7.554688 8.460938 7.605469 L 8.429688 7.667969 L 8.46875 7.699219 C 8.519531 7.734375 8.554688 7.738281 8.640625 7.714844 C 8.710938 7.695312 8.859375 7.667969 8.898438 7.671875 C 8.910156 7.671875 8.917969 7.667969 8.917969 7.660156 C 8.917969 7.65625 8.96875 7.640625 9.027344 7.628906 C 9.085938 7.617188 9.179688 7.597656 9.234375 7.582031 C 9.289062 7.570312 9.398438 7.546875 9.472656 7.53125 C 9.90625 7.441406 10.09375 7.402344 10.164062 7.386719 C 10.246094 7.363281 10.308594 7.367188 10.324219 7.386719 C 10.328125 7.394531 10.363281 7.402344 10.398438 7.402344 C 10.457031 7.402344 10.515625 7.367188 10.640625 7.246094 C 10.660156 7.230469 10.679688 7.21875 10.6875 7.21875 C 10.699219 7.21875 10.707031 7.207031 10.707031 7.199219 C 10.707031 7.191406 10.71875 7.183594 10.730469 7.183594 C 10.746094 7.183594 10.757812 7.175781 10.757812 7.164062 C 10.757812 7.15625 10.769531 7.144531 10.78125 7.136719 C 10.816406 7.125 10.886719 7.207031 11.058594 7.445312 C 11.125 7.539062 11.191406 7.625 11.199219 7.636719 C 11.234375 7.679688 11.214844 8.089844 11.15625 8.46875 C 11.125 8.671875 11.125 8.726562 11.152344 8.742188 C 11.175781 8.757812 11.160156 8.851562 11.03125 9.378906 C 10.992188 9.53125 10.953125 9.675781 10.917969 9.804688 C 10.894531 9.894531 10.847656 10.074219 10.824219 10.171875 C 10.800781 10.253906 10.769531 10.378906 10.734375 10.503906 C 10.71875 10.554688 10.707031 10.613281 10.707031 10.636719 C 10.707031 10.734375 10.574219 10.972656 10.457031 11.085938 C 10.351562 11.191406 10.265625 11.269531 10.253906 11.269531 C 10.25 11.269531 10.226562 11.289062 10.195312 11.316406 C 10.164062 11.34375 10.121094 11.378906 10.097656 11.390625 C 10.070312 11.402344 10.046875 11.417969 10.042969 11.421875 C 10.023438 11.445312 9.839844 11.558594 9.824219 11.558594 C 9.816406 11.558594 9.804688 11.5625 9.800781 11.570312 C 9.792969 11.589844 9.390625 11.789062 9.3125 11.8125 C 9.277344 11.820312 9.148438 11.863281 9.019531 11.902344 C 8.894531 11.945312 8.734375 11.988281 8.664062 12 C 8.59375 12.011719 8.488281 12.03125 8.425781 12.042969 C 8.363281 12.054688 8.273438 12.070312 8.222656 12.074219 C 8.171875 12.078125 8.078125 12.09375 8.015625 12.101562 C 7.851562 12.128906 7.550781 12.121094 7.386719 12.09375 C 7.101562 12.039062 6.753906 11.949219 6.640625 11.90625 C 6.609375 11.890625 6.570312 11.878906 6.554688 11.878906 C 6.539062 11.878906 6.511719 11.867188 6.492188 11.855469 C 6.476562 11.839844 6.449219 11.828125 6.4375 11.828125 C 6.414062 11.828125 6.246094 11.757812 6.195312 11.726562 C 6.183594 11.71875 6.136719 11.695312 6.09375 11.671875 C 6.050781 11.652344 6.011719 11.628906 6.011719 11.621094 C 6.007812 11.613281 5.992188 11.609375 5.972656 11.609375 C 5.960938 11.609375 5.933594 11.597656 5.921875 11.582031 C 5.910156 11.570312 5.894531 11.558594 5.886719 11.558594 C 5.871094 11.558594 5.847656 11.539062 5.785156 11.484375 C 5.769531 11.46875 5.746094 11.457031 5.734375 11.457031 C 5.726562 11.457031 5.71875 11.449219 5.71875 11.441406 C 5.71875 11.429688 5.695312 11.410156 5.667969 11.390625 C 5.640625 11.378906 5.617188 11.355469 5.617188 11.347656 C 5.617188 11.339844 5.605469 11.324219 5.597656 11.3125 C 5.507812 11.21875 5.433594 11.113281 5.402344 11.023438 C 5.3125 10.757812 5.269531 10.621094 5.226562 10.433594 C 5.21875 10.402344 5.199219 10.332031 5.183594 10.277344 C 5.167969 10.226562 5.15625 10.171875 5.15625 10.152344 C 5.15625 10.132812 5.148438 10.070312 5.132812 10.007812 C 5.039062 9.59375 4.984375 9.007812 4.960938 8.191406 C 4.953125 7.828125 4.949219 7.84375 5.082031 7.566406 C 5.121094 7.480469 5.15625 7.402344 5.164062 7.386719 C 5.167969 7.375 5.179688 7.351562 5.191406 7.335938 C 5.199219 7.324219 5.21875 7.285156 5.230469 7.25 L 5.261719 7.191406 L 5.25 7.257812 C 5.242188 7.335938 5.21875 7.457031 5.191406 7.589844 C 5.144531 7.828125 5.199219 7.921875 5.375 7.890625 C 5.4375 7.878906 5.546875 7.824219 5.640625 7.75 C 5.671875 7.734375 5.726562 7.699219 5.761719 7.675781 L 5.835938 7.640625 L 5.871094 7.675781 C 5.890625 7.695312 5.90625 7.714844 5.90625 7.71875 C 5.90625 7.742188 6.148438 7.96875 6.1875 7.984375 C 6.25 8.007812 6.316406 8.003906 6.367188 7.972656 C 6.390625 7.960938 6.421875 7.945312 6.433594 7.9375 C 6.449219 7.929688 6.484375 7.902344 6.511719 7.878906 C 6.550781 7.839844 6.578125 7.828125 6.636719 7.828125 C 6.679688 7.828125 6.726562 7.820312 6.742188 7.804688 C 6.765625 7.78125 6.785156 7.78125 6.878906 7.796875 C 7.113281 7.839844 7.125 7.839844 7.15625 7.777344 C 7.199219 7.699219 7.171875 7.652344 7.074219 7.628906 C 7.03125 7.617188 6.980469 7.609375 6.964844 7.609375 C 6.941406 7.609375 6.925781 7.601562 6.925781 7.597656 C 6.925781 7.582031 7.074219 7.390625 7.105469 7.363281 C 7.117188 7.351562 7.140625 7.316406 7.164062 7.28125 C 7.1875 7.246094 7.210938 7.207031 7.222656 7.195312 C 7.234375 7.183594 7.261719 7.148438 7.285156 7.113281 C 7.308594 7.082031 7.339844 7.039062 7.355469 7.019531 C 7.371094 7.003906 7.402344 6.96875 7.421875 6.945312 L 7.457031 6.902344 L 7.449219 6.988281 C 7.441406 7.03125 7.433594 7.214844 7.425781 7.390625 C 7.417969 7.683594 7.417969 7.714844 7.445312 7.746094 C 7.464844 7.761719 7.492188 7.78125 7.507812 7.789062 C 7.550781 7.800781 7.609375 7.746094 7.609375 7.699219 C 7.609375 7.675781 7.617188 7.644531 7.625 7.628906 C 7.632812 7.613281 7.65625 7.550781 7.675781 7.488281 C 7.695312 7.429688 7.726562 7.335938 7.746094 7.285156 C 7.765625 7.234375 7.789062 7.171875 7.792969 7.148438 C 7.8125 7.089844 7.949219 6.769531 7.964844 6.75 C 7.972656 6.738281 7.988281 6.703125 8.003906 6.664062 C 8.085938 6.449219 8.488281 5.640625 8.546875 5.5625 C 8.574219 5.53125 8.597656 5.496094 8.597656 5.492188 C 8.597656 5.476562 8.675781 5.347656 8.710938 5.308594 C 8.734375 5.277344 8.78125 5.285156 8.78125 5.316406 C 8.78125 5.347656 8.835938 5.394531 8.875 5.394531 C 8.921875 5.394531 8.96875 5.347656 8.96875 5.296875 C 8.96875 5.269531 8.945312 5.222656 8.914062 5.183594 C 8.875 5.144531 8.859375 5.109375 8.863281 5.09375 C 8.875 5.0625 8.953125 4.988281 8.96875 4.988281 C 8.984375 4.988281 9.054688 5.167969 9.054688 5.207031 C 9.054688 5.253906 9.121094 5.328125 9.164062 5.328125 C 9.1875 5.328125 9.214844 5.316406 9.226562 5.300781 C 9.25 5.273438 9.25 5.140625 9.226562 5.117188 C 9.214844 5.105469 9.207031 5.085938 9.207031 5.074219 C 9.207031 5.042969 9.144531 4.90625 9.121094 4.890625 C 9.113281 4.886719 9.105469 4.871094 9.105469 4.859375 C 9.105469 4.8125 9.148438 4.835938 9.195312 4.902344 Z M 12.300781 7.921875 C 12.457031 8.066406 12.527344 8.238281 12.5625 8.578125 C 12.582031 8.746094 12.582031 8.796875 12.554688 8.9375 C 12.539062 9.023438 12.519531 9.105469 12.511719 9.113281 C 12.5 9.125 12.492188 9.148438 12.492188 9.167969 C 12.492188 9.1875 12.480469 9.214844 12.46875 9.226562 C 12.453125 9.238281 12.441406 9.257812 12.441406 9.269531 C 12.441406 9.289062 12.410156 9.351562 12.359375 9.433594 C 12.34375 9.457031 12.292969 9.542969 12.242188 9.625 C 12.140625 9.785156 11.78125 10.171875 11.691406 10.21875 C 11.660156 10.234375 11.601562 10.265625 11.566406 10.289062 C 11.46875 10.347656 11.445312 10.34375 11.441406 10.269531 C 11.441406 10.238281 11.433594 10.203125 11.429688 10.199219 C 11.425781 10.195312 11.375 10.183594 11.316406 10.175781 C 11.183594 10.160156 11.144531 10.183594 11.117188 10.296875 C 11.097656 10.378906 11.09375 10.378906 11.023438 10.386719 C 10.984375 10.390625 10.949219 10.394531 10.945312 10.390625 C 10.941406 10.386719 10.953125 10.351562 10.96875 10.3125 C 10.980469 10.269531 11 10.203125 11.011719 10.160156 C 11.023438 10.121094 11.042969 10.042969 11.058594 9.992188 C 11.074219 9.941406 11.09375 9.855469 11.109375 9.804688 C 11.125 9.753906 11.144531 9.671875 11.160156 9.625 C 11.171875 9.578125 11.1875 9.519531 11.191406 9.492188 C 11.195312 9.46875 11.214844 9.441406 11.230469 9.433594 C 11.246094 9.429688 11.320312 9.378906 11.394531 9.328125 C 11.46875 9.273438 11.589844 9.191406 11.664062 9.140625 C 11.738281 9.085938 11.808594 9.035156 11.820312 9.023438 C 11.835938 9.015625 11.851562 9.003906 11.859375 9.003906 C 11.890625 9.003906 12 8.898438 12 8.867188 C 12 8.804688 11.980469 8.78125 11.921875 8.78125 C 11.863281 8.78125 11.796875 8.820312 11.632812 8.941406 C 11.585938 8.976562 11.535156 9.003906 11.527344 9.003906 C 11.519531 9.003906 11.507812 9.011719 11.503906 9.019531 C 11.492188 9.046875 11.269531 9.210938 11.269531 9.1875 C 11.269531 9.171875 11.285156 9.09375 11.335938 8.894531 C 11.355469 8.828125 11.375 8.726562 11.402344 8.558594 C 11.421875 8.449219 11.472656 8.335938 11.585938 8.167969 C 11.734375 7.945312 11.90625 7.832031 12.09375 7.832031 C 12.199219 7.828125 12.199219 7.832031 12.300781 7.921875 Z M 4.496094 8.042969 C 4.503906 8.058594 4.523438 8.066406 4.535156 8.066406 C 4.542969 8.066406 4.605469 8.117188 4.667969 8.175781 L 4.78125 8.28125 L 4.78125 8.460938 C 4.78125 8.632812 4.804688 9 4.832031 9.285156 C 4.839844 9.359375 4.84375 9.425781 4.839844 9.429688 C 4.839844 9.429688 4.796875 9.394531 4.75 9.34375 C 4.640625 9.230469 4.515625 9.140625 4.464844 9.140625 C 4.417969 9.140625 4.386719 9.191406 4.40625 9.238281 C 4.410156 9.257812 4.492188 9.34375 4.585938 9.429688 C 4.679688 9.519531 4.773438 9.609375 4.792969 9.628906 C 4.816406 9.652344 4.839844 9.667969 4.847656 9.667969 C 4.875 9.667969 4.902344 9.746094 4.917969 9.871094 C 4.929688 9.9375 4.941406 10 4.945312 10.011719 C 4.953125 10.019531 4.960938 10.066406 4.96875 10.113281 C 4.996094 10.257812 5.019531 10.355469 5.03125 10.390625 C 5.042969 10.417969 5.035156 10.421875 4.902344 10.414062 C 4.757812 10.410156 4.742188 10.402344 4.527344 10.289062 C 4.507812 10.28125 4.492188 10.265625 4.492188 10.25 C 4.492188 10.238281 4.488281 10.230469 4.476562 10.230469 C 4.46875 10.230469 4.433594 10.195312 4.402344 10.148438 C 4.367188 10.105469 4.335938 10.058594 4.328125 10.050781 C 4.285156 9.996094 4.082031 9.683594 4.074219 9.65625 C 4.066406 9.640625 4.054688 9.613281 4.042969 9.601562 C 4.019531 9.570312 3.945312 9.316406 3.90625 9.128906 C 3.890625 9.054688 3.878906 8.917969 3.878906 8.78125 C 3.878906 8.523438 3.90625 8.394531 4.003906 8.203125 C 4.054688 8.105469 4.066406 8.089844 4.144531 8.0625 C 4.296875 8.003906 4.457031 7.996094 4.496094 8.042969 Z M 8.894531 12.808594 C 8.914062 13.09375 8.921875 13.152344 8.949219 13.167969 C 8.988281 13.199219 9.023438 13.195312 9.074219 13.15625 C 9.113281 13.125 9.15625 13.113281 9.15625 13.132812 C 9.15625 13.136719 9.144531 13.152344 9.128906 13.171875 C 9.113281 13.191406 9.078125 13.230469 9.054688 13.261719 C 9.007812 13.324219 8.855469 13.480469 8.84375 13.480469 C 8.835938 13.480469 8.820312 13.496094 8.800781 13.511719 C 8.746094 13.5625 8.714844 13.582031 8.707031 13.582031 C 8.699219 13.582031 8.65625 13.601562 8.609375 13.625 C 8.371094 13.734375 8.269531 13.757812 8.003906 13.765625 C 7.808594 13.773438 7.761719 13.769531 7.660156 13.734375 C 7.457031 13.671875 7.363281 13.542969 7.375 13.34375 C 7.382812 13.15625 7.523438 12.925781 7.632812 12.914062 C 7.683594 12.910156 7.683594 12.910156 7.691406 12.800781 L 7.695312 12.6875 L 7.859375 12.6875 C 7.996094 12.6875 8.046875 12.679688 8.15625 12.640625 C 8.226562 12.617188 8.316406 12.578125 8.359375 12.554688 C 8.398438 12.53125 8.46875 12.496094 8.511719 12.472656 C 8.554688 12.449219 8.589844 12.429688 8.597656 12.425781 C 8.601562 12.417969 8.632812 12.398438 8.664062 12.382812 C 8.695312 12.363281 8.726562 12.34375 8.734375 12.335938 C 8.738281 12.328125 8.769531 12.304688 8.800781 12.277344 L 8.859375 12.238281 L 8.863281 12.351562 C 8.867188 12.414062 8.878906 12.621094 8.894531 12.808594 Z M 9.15625 12.929688 C 9.15625 12.933594 9.140625 12.9375 9.125 12.9375 C 9.105469 12.9375 9.089844 12.929688 9.089844 12.921875 C 9.089844 12.914062 9.105469 12.910156 9.125 12.914062 C 9.140625 12.917969 9.15625 12.925781 9.15625 12.929688 Z M 9.46875 13.085938 L 9.527344 13.117188 L 9.484375 13.167969 C 9.417969 13.253906 9.292969 13.429688 9.292969 13.445312 C 9.292969 13.457031 9.285156 13.46875 9.273438 13.476562 C 9.261719 13.484375 9.238281 13.511719 9.226562 13.539062 C 9.179688 13.628906 9.121094 13.710938 9.09375 13.722656 C 9.066406 13.730469 9.011719 13.824219 8.902344 14.042969 C 8.835938 14.179688 8.703125 14.503906 8.636719 14.699219 C 8.597656 14.824219 8.582031 14.863281 8.515625 15.007812 C 8.503906 15.039062 8.492188 15.074219 8.492188 15.089844 C 8.492188 15.101562 8.484375 15.132812 8.46875 15.160156 C 8.4375 15.226562 8.410156 15.324219 8.410156 15.363281 C 8.410156 15.386719 8.386719 15.441406 8.363281 15.492188 C 8.339844 15.539062 8.316406 15.613281 8.308594 15.65625 C 8.300781 15.730469 8.300781 15.730469 8.25 15.722656 C 8.21875 15.71875 7.9375 15.707031 7.625 15.703125 C 7.3125 15.695312 7.007812 15.6875 6.949219 15.683594 C 6.855469 15.675781 6.84375 15.667969 6.84375 15.636719 C 6.84375 15.589844 6.800781 15.457031 6.773438 15.402344 C 6.757812 15.378906 6.726562 15.328125 6.703125 15.285156 L 6.65625 15.207031 L 6.683594 14.980469 C 6.726562 14.582031 6.769531 14.238281 6.835938 13.820312 C 6.859375 13.652344 6.875 13.589844 6.914062 13.472656 C 6.921875 13.445312 6.9375 13.394531 6.945312 13.363281 C 6.953125 13.332031 6.972656 13.296875 6.992188 13.285156 C 7.007812 13.273438 7.066406 13.230469 7.121094 13.191406 C 7.214844 13.125 7.222656 13.121094 7.210938 13.160156 C 7.203125 13.179688 7.191406 13.25 7.1875 13.3125 C 7.171875 13.5 7.226562 13.648438 7.363281 13.777344 C 7.507812 13.921875 7.664062 13.960938 8 13.953125 C 8.289062 13.945312 8.449219 13.90625 8.675781 13.804688 C 8.714844 13.785156 8.753906 13.769531 8.757812 13.769531 C 8.785156 13.769531 9.023438 13.574219 9.105469 13.488281 C 9.210938 13.378906 9.34375 13.203125 9.34375 13.179688 C 9.34375 13.167969 9.355469 13.152344 9.371094 13.140625 C 9.382812 13.128906 9.394531 13.105469 9.394531 13.085938 C 9.394531 13.046875 9.398438 13.046875 9.46875 13.085938 Z M 5.835938 15.65625 C 5.878906 15.675781 5.890625 15.691406 5.890625 15.738281 C 5.890625 15.804688 5.882812 15.808594 5.785156 15.761719 C 5.601562 15.675781 5.574219 15.640625 5.617188 15.535156 L 5.632812 15.488281 L 5.707031 15.5625 C 5.746094 15.601562 5.804688 15.644531 5.835938 15.65625 Z M 6.625 15.628906 C 6.652344 15.734375 6.578125 15.808594 6.425781 15.835938 L 6.375 15.847656 L 6.371094 15.746094 C 6.371094 15.660156 6.375 15.640625 6.398438 15.640625 C 6.414062 15.640625 6.460938 15.625 6.503906 15.601562 C 6.542969 15.578125 6.585938 15.5625 6.597656 15.5625 C 6.605469 15.566406 6.621094 15.597656 6.625 15.628906 Z M 9.6875 15.65625 C 9.667969 15.679688 9.644531 15.695312 9.632812 15.695312 C 9.625 15.695312 9.617188 15.699219 9.617188 15.707031 C 9.617188 15.726562 9.464844 15.792969 9.402344 15.800781 C 9.371094 15.800781 9.351562 15.796875 9.351562 15.777344 C 9.34375 15.761719 9.367188 15.746094 9.433594 15.730469 C 9.484375 15.71875 9.566406 15.6875 9.617188 15.664062 C 9.667969 15.636719 9.714844 15.617188 9.714844 15.617188 C 9.71875 15.621094 9.707031 15.640625 9.6875 15.65625 Z M 8.769531 15.769531 C 8.890625 15.796875 8.902344 15.800781 8.902344 15.839844 C 8.902344 15.886719 8.902344 15.886719 8.769531 15.878906 C 8.5625 15.867188 8.464844 15.800781 8.5 15.699219 C 8.507812 15.679688 8.519531 15.679688 8.574219 15.707031 C 8.609375 15.726562 8.699219 15.753906 8.769531 15.769531 Z M 6.160156 15.773438 C 6.160156 15.789062 6.148438 15.796875 6.128906 15.796875 C 6.109375 15.796875 6.09375 15.785156 6.09375 15.769531 C 6.09375 15.738281 6.144531 15.742188 6.160156 15.773438 Z M 6.160156 15.773438 "/>
<path style=" stroke:none;fill-rule:nonzero;fill:rgb(0%,0%,0%);fill-opacity:1;" d="M 10.824219 7.90625 C 10.820312 7.910156 10.667969 7.921875 10.484375 7.929688 C 10.304688 7.941406 10.0625 7.957031 9.949219 7.964844 C 9.835938 7.972656 9.605469 7.992188 9.4375 8 C 9.269531 8.011719 8.992188 8.027344 8.824219 8.042969 C 8.65625 8.058594 8.511719 8.066406 8.5 8.066406 C 8.472656 8.066406 8.441406 8.160156 8.441406 8.246094 C 8.445312 8.382812 8.558594 8.714844 8.644531 8.820312 C 8.800781 9.019531 8.984375 9.164062 9.144531 9.214844 C 9.445312 9.316406 9.605469 9.316406 9.933594 9.222656 C 10.023438 9.195312 10.183594 9.113281 10.304688 9.027344 C 10.402344 8.960938 10.605469 8.777344 10.605469 8.757812 C 10.605469 8.753906 10.617188 8.734375 10.636719 8.714844 C 10.6875 8.65625 10.707031 8.632812 10.707031 8.613281 C 10.707031 8.605469 10.714844 8.597656 10.71875 8.59375 C 10.742188 8.585938 10.84375 8.394531 10.84375 8.367188 C 10.84375 8.355469 10.855469 8.320312 10.867188 8.296875 C 10.882812 8.269531 10.894531 8.234375 10.894531 8.214844 C 10.894531 8.199219 10.910156 8.144531 10.925781 8.09375 C 10.960938 7.996094 10.957031 7.957031 10.914062 7.921875 C 10.886719 7.898438 10.835938 7.890625 10.824219 7.90625 Z M 10.714844 8.164062 C 10.703125 8.238281 10.554688 8.542969 10.535156 8.542969 C 10.527344 8.542969 10.519531 8.554688 10.519531 8.570312 C 10.519531 8.582031 10.515625 8.597656 10.507812 8.597656 C 10.5 8.601562 10.472656 8.632812 10.445312 8.664062 C 10.402344 8.714844 10.335938 8.773438 10.210938 8.875 C 10.050781 9.003906 9.753906 9.105469 9.539062 9.105469 C 9.363281 9.105469 9.117188 9.019531 8.996094 8.917969 C 8.90625 8.839844 8.820312 8.742188 8.792969 8.691406 C 8.777344 8.664062 8.75 8.613281 8.734375 8.585938 C 8.695312 8.523438 8.628906 8.328125 8.628906 8.28125 C 8.628906 8.246094 8.644531 8.242188 8.855469 8.226562 C 8.976562 8.214844 9.085938 8.210938 9.09375 8.214844 C 9.097656 8.21875 9.105469 8.242188 9.105469 8.269531 C 9.105469 8.320312 9.175781 8.492188 9.195312 8.492188 C 9.203125 8.492188 9.207031 8.503906 9.207031 8.515625 C 9.207031 8.554688 9.34375 8.675781 9.453125 8.734375 C 9.554688 8.789062 9.5625 8.789062 9.753906 8.789062 C 9.941406 8.789062 9.953125 8.785156 10.078125 8.726562 C 10.21875 8.65625 10.25 8.636719 10.3125 8.582031 C 10.335938 8.5625 10.363281 8.542969 10.371094 8.542969 C 10.378906 8.542969 10.382812 8.535156 10.382812 8.527344 C 10.382812 8.515625 10.402344 8.488281 10.425781 8.46875 C 10.472656 8.421875 10.5625 8.261719 10.578125 8.1875 C 10.589844 8.132812 10.625 8.105469 10.6875 8.101562 C 10.722656 8.101562 10.722656 8.105469 10.714844 8.164062 Z M 10.714844 8.164062 "/>
<path style=" stroke:none;fill-rule:nonzero;fill:rgb(0%,0%,0%);fill-opacity:1;" d="M 7.316406 8.144531 C 7.3125 8.148438 7.15625 8.160156 6.96875 8.171875 C 6.277344 8.203125 6.003906 8.222656 5.992188 8.226562 C 5.988281 8.234375 5.824219 8.246094 5.632812 8.253906 C 5.226562 8.277344 5.113281 8.292969 5.101562 8.339844 C 5.078125 8.425781 5.132812 8.65625 5.207031 8.792969 C 5.277344 8.917969 5.300781 8.945312 5.40625 9.046875 C 5.644531 9.277344 6.015625 9.386719 6.359375 9.320312 C 6.503906 9.292969 6.703125 9.222656 6.757812 9.183594 C 6.769531 9.171875 6.792969 9.15625 6.808594 9.152344 C 6.820312 9.144531 6.859375 9.125 6.886719 9.105469 C 6.914062 9.085938 6.949219 9.066406 6.960938 9.058594 C 6.976562 9.054688 7.003906 9.035156 7.019531 9.019531 C 7.039062 9 7.058594 8.988281 7.066406 8.988281 C 7.085938 8.988281 7.261719 8.765625 7.300781 8.6875 C 7.320312 8.652344 7.34375 8.609375 7.351562 8.597656 C 7.445312 8.429688 7.484375 8.214844 7.425781 8.164062 C 7.394531 8.136719 7.335938 8.125 7.316406 8.144531 Z M 7.21875 8.429688 C 7.183594 8.519531 7.136719 8.613281 7.117188 8.628906 C 7.109375 8.636719 7.078125 8.679688 7.046875 8.726562 C 7.015625 8.777344 6.976562 8.816406 6.96875 8.816406 C 6.953125 8.816406 6.945312 8.824219 6.945312 8.832031 C 6.945312 8.851562 6.738281 8.980469 6.585938 9.050781 C 6.382812 9.148438 6.167969 9.175781 5.964844 9.125 C 5.835938 9.097656 5.644531 9.019531 5.605469 8.980469 C 5.597656 8.96875 5.566406 8.941406 5.539062 8.917969 C 5.46875 8.855469 5.429688 8.804688 5.402344 8.742188 C 5.367188 8.667969 5.335938 8.613281 5.3125 8.589844 C 5.300781 8.582031 5.292969 8.546875 5.292969 8.515625 C 5.292969 8.464844 5.296875 8.460938 5.359375 8.457031 C 5.390625 8.457031 5.519531 8.449219 5.640625 8.445312 C 5.757812 8.4375 5.855469 8.4375 5.855469 8.445312 C 5.855469 8.457031 5.914062 8.585938 5.945312 8.640625 C 6.0625 8.847656 6.410156 8.976562 6.636719 8.894531 C 6.742188 8.855469 6.832031 8.8125 6.839844 8.792969 C 6.84375 8.789062 6.851562 8.78125 6.863281 8.78125 C 6.910156 8.78125 7.132812 8.5 7.132812 8.441406 C 7.132812 8.390625 7.167969 8.339844 7.207031 8.339844 L 7.25 8.339844 Z M 7.21875 8.429688 "/>
<path style=" stroke:none;fill-rule:nonzero;fill:rgb(0%,0%,0%);fill-opacity:1;" d="M 10.683594 8.835938 C 10.660156 8.851562 10.636719 8.867188 10.632812 8.867188 C 10.628906 8.867188 10.597656 8.890625 10.566406 8.917969 C 10.535156 8.945312 10.503906 8.96875 10.488281 8.96875 C 10.476562 8.96875 10.46875 8.976562 10.46875 8.988281 C 10.46875 8.996094 10.457031 9.003906 10.445312 9.003906 C 10.429688 9.003906 10.417969 9.011719 10.414062 9.019531 C 10.410156 9.03125 10.246094 9.128906 10.144531 9.179688 C 10.066406 9.21875 9.851562 9.292969 9.820312 9.296875 C 9.808594 9.296875 9.765625 9.308594 9.730469 9.324219 C 9.640625 9.363281 9.675781 9.390625 9.777344 9.363281 C 10.027344 9.285156 10.296875 9.179688 10.332031 9.140625 C 10.335938 9.132812 10.398438 9.09375 10.46875 9.046875 C 10.539062 9 10.605469 8.957031 10.613281 8.949219 C 10.621094 8.941406 10.664062 8.914062 10.703125 8.882812 C 10.742188 8.855469 10.773438 8.824219 10.773438 8.816406 C 10.773438 8.789062 10.730469 8.796875 10.683594 8.835938 Z M 10.683594 8.835938 "/>
<path style=" stroke:none;fill-rule:nonzero;fill:rgb(0%,0%,0%);fill-opacity:1;" d="M 5.207031 8.972656 C 5.207031 9 5.378906 9.15625 5.40625 9.15625 C 5.417969 9.15625 5.429688 9.164062 5.429688 9.171875 C 5.429688 9.1875 5.472656 9.214844 5.652344 9.300781 C 5.792969 9.375 5.835938 9.390625 5.992188 9.429688 C 6.183594 9.484375 6.332031 9.496094 6.332031 9.457031 C 6.332031 9.4375 6.316406 9.429688 6.285156 9.429688 C 6.1875 9.429688 5.917969 9.363281 5.796875 9.3125 C 5.574219 9.21875 5.421875 9.121094 5.285156 8.996094 C 5.238281 8.949219 5.207031 8.941406 5.207031 8.972656 Z M 5.207031 8.972656 "/>
<path style=" stroke:none;fill-rule:nonzero;fill:rgb(0%,0%,0%);fill-opacity:1;" d="M 10.585938 9.03125 C 10.574219 9.042969 10.558594 9.054688 10.550781 9.054688 C 10.542969 9.054688 10.519531 9.074219 10.496094 9.09375 C 10.472656 9.113281 10.398438 9.160156 10.332031 9.195312 C 10.183594 9.269531 10.132812 9.304688 10.148438 9.320312 C 10.160156 9.332031 10.261719 9.296875 10.28125 9.277344 C 10.285156 9.273438 10.328125 9.25 10.375 9.226562 C 10.421875 9.203125 10.464844 9.179688 10.464844 9.167969 C 10.46875 9.164062 10.476562 9.15625 10.488281 9.15625 C 10.511719 9.15625 10.652344 9.050781 10.664062 9.023438 C 10.675781 8.996094 10.613281 9 10.585938 9.03125 Z M 10.585938 9.03125 "/>
<path style=" stroke:none;fill-rule:nonzero;fill:rgb(0%,0%,0%);fill-opacity:1;" d="M 5.34375 9.183594 C 5.34375 9.210938 5.457031 9.300781 5.539062 9.335938 C 5.570312 9.351562 5.601562 9.371094 5.617188 9.378906 C 5.628906 9.386719 5.683594 9.414062 5.734375 9.433594 C 5.992188 9.546875 6.027344 9.554688 6.039062 9.511719 C 6.042969 9.488281 6.035156 9.480469 6.003906 9.480469 C 5.984375 9.480469 5.949219 9.46875 5.929688 9.457031 C 5.914062 9.441406 5.886719 9.429688 5.871094 9.429688 C 5.859375 9.429688 5.785156 9.398438 5.710938 9.363281 C 5.636719 9.324219 5.5625 9.292969 5.554688 9.292969 C 5.542969 9.292969 5.53125 9.285156 5.53125 9.277344 C 5.53125 9.269531 5.511719 9.253906 5.484375 9.242188 C 5.457031 9.230469 5.417969 9.207031 5.402344 9.191406 C 5.367188 9.152344 5.34375 9.148438 5.34375 9.183594 Z M 5.34375 9.183594 "/>
<path style=" stroke:none;fill-rule:nonzero;fill:rgb(0%,0%,0%);fill-opacity:1;" d="M 7.195312 9.203125 C 7.105469 9.226562 7.164062 9.402344 7.335938 9.609375 C 7.539062 9.859375 7.570312 9.890625 7.605469 9.890625 C 7.65625 9.886719 7.695312 9.84375 7.695312 9.789062 C 7.695312 9.761719 7.679688 9.722656 7.664062 9.707031 C 7.648438 9.6875 7.605469 9.640625 7.574219 9.601562 C 7.542969 9.558594 7.496094 9.503906 7.46875 9.472656 C 7.390625 9.386719 7.398438 9.382812 7.617188 9.414062 C 7.726562 9.429688 7.753906 9.429688 7.789062 9.402344 C 7.835938 9.375 7.84375 9.292969 7.804688 9.261719 C 7.769531 9.230469 7.277344 9.183594 7.195312 9.203125 Z M 7.195312 9.203125 "/>
<path style=" stroke:none;fill-rule:nonzero;fill:rgb(0%,0%,0%);fill-opacity:1;" d="M 10.472656 9.265625 C 10.417969 9.308594 10.355469 9.347656 10.335938 9.351562 C 10.289062 9.367188 10.25 9.414062 10.285156 9.414062 C 10.328125 9.414062 10.417969 9.378906 10.417969 9.359375 C 10.417969 9.351562 10.425781 9.34375 10.433594 9.34375 C 10.464844 9.34375 10.601562 9.234375 10.605469 9.210938 C 10.605469 9.179688 10.578125 9.1875 10.472656 9.265625 Z M 10.472656 9.265625 "/>
<path style=" stroke:none;fill-rule:nonzero;fill:rgb(0%,0%,0%);fill-opacity:1;" d="M 5.433594 9.363281 C 5.4375 9.378906 5.511719 9.417969 5.59375 9.460938 C 5.675781 9.5 5.757812 9.542969 5.777344 9.550781 C 5.832031 9.582031 5.960938 9.617188 5.984375 9.605469 C 6.03125 9.589844 6.007812 9.566406 5.914062 9.539062 C 5.859375 9.523438 5.761719 9.484375 5.691406 9.453125 C 5.625 9.421875 5.5625 9.394531 5.558594 9.394531 C 5.550781 9.394531 5.535156 9.382812 5.523438 9.371094 C 5.492188 9.339844 5.425781 9.335938 5.433594 9.363281 Z M 5.433594 9.363281 "/>
<path style=" stroke:none;fill-rule:nonzero;fill:rgb(0%,0%,0%);fill-opacity:1;" d="M 7.390625 10.902344 C 7.363281 10.96875 7.375 10.992188 7.449219 11.035156 C 7.648438 11.140625 7.871094 11.25 7.894531 11.25 C 7.945312 11.25 8.003906 11.183594 7.992188 11.140625 C 7.988281 11.125 7.984375 11.097656 7.984375 11.09375 C 7.984375 11.085938 7.894531 11.035156 7.785156 10.984375 C 7.671875 10.933594 7.5625 10.882812 7.535156 10.867188 C 7.464844 10.828125 7.425781 10.835938 7.390625 10.902344 Z M 7.390625 10.902344 "/>
</g>
</svg>
