<?xml version="1.0" encoding="UTF-8"?>
<svg xmlns="http://www.w3.org/2000/svg" xmlns:xlink="http://www.w3.org/1999/xlink" width="16px" height="16px" viewBox="0 0 16 16" version="1.1">
<g id="surface1">
<path style=" stroke:none;fill-rule:nonzero;fill:rgb(0%,0%,0%);fill-opacity:1;" d="M 8 0 C 12.421875 0 16 3.578125 16 8 C 16 11.4375 13.804688 14.492188 10.550781 15.589844 C 10.148438 15.671875 10 15.421875 10 15.210938 C 10 14.941406 10.011719 14.078125 10.011719 13.011719 C 10.011719 12.261719 9.761719 11.78125 9.46875 11.53125 C 11.25 11.328125 13.121094 10.648438 13.121094 7.578125 C 13.121094 6.699219 12.808594 5.988281 12.300781 5.429688 C 12.378906 5.230469 12.660156 4.410156 12.21875 3.308594 C 12.21875 3.308594 11.550781 3.089844 10.019531 4.128906 C 9.378906 3.949219 8.699219 3.859375 8.019531 3.859375 C 7.339844 3.859375 6.660156 3.949219 6.019531 4.128906 C 4.488281 3.101562 3.820312 3.308594 3.820312 3.308594 C 3.378906 4.410156 3.660156 5.230469 3.738281 5.429688 C 3.230469 5.988281 2.921875 6.710938 2.921875 7.578125 C 2.921875 10.640625 4.78125 11.328125 6.558594 11.53125 C 6.328125 11.730469 6.121094 12.078125 6.050781 12.601562 C 5.589844 12.808594 4.441406 13.148438 3.71875 11.941406 C 3.570312 11.699219 3.121094 11.109375 2.488281 11.121094 C 1.820312 11.128906 2.21875 11.5 2.5 11.648438 C 2.839844 11.839844 3.230469 12.550781 3.320312 12.78125 C 3.480469 13.230469 4 14.089844 6.011719 13.71875 C 6.011719 14.390625 6.019531 15.019531 6.019531 15.210938 C 6.019531 15.421875 5.871094 15.660156 5.46875 15.589844 C 2.203125 14.503906 0 11.445312 0 8 C 0 3.578125 3.578125 0 8 0 Z M 8 0 "/>
</g>
</svg>
